<svg xmlns="http://www.w3.org/2000/svg" viewBox="0 0 100 100" width="512" height="512">
  <path
    fill="none"
    stroke="hsl(var(--primary))"
    stroke-width="1.5"
    stroke-linecap="round"
    stroke-linejoin="round"
    d="M 10,50
       A 40,40 0 1,1 90,50
       A 40,40 0 0,1 10,50 Z
       M 25 30 L 75 30 M 25 35 L 75 35 M 25 40 L 75 40 M 25 45 L 75 45 M 25 50 L 75 50 M 25 55 L 75 55 M 25 60 L 75 60 M 25 65 L 75 65
       M 50,15 L 50,85
       M 40,25 L 60,25"
  />
  <g transform="translate(25, 20) scale(0.55)">
    <path fill="hsl(var(--primary))" d="M47.5,23.5c0,0-1.2-2-1.8-2.6c-1-1-2.6-2.5-2.6-2.5s-2.1-1.4-3.1-1.4s-3.1,1.4-3.1,1.4s-1.6,1.5-2.6,2.5
      c-0.6,0.6-1.8,2.6-1.8,2.6s-0.5,1-0.5,2.1s0.5,2.1,0.5,2.1l0.5,1.5v4.2h14.5v-4.2l0.5-1.5c0,0,0.5-1,0.5-2.1
      S47.5,23.5,47.5,23.5z"/>
    <path fill="none" stroke="hsl(var(--primary))" stroke-width="2" d="M60,28.5l-7.3-3.6c0,0-2.1-1-3.6-1s-3.6,1-3.6,1L38,28.5c0,0-1,0.5-1,1.6
      s1,1.6,1,1.6l4.2,1v2.1v4.7v5.2h8.4v-5.2v-4.7v-2.1l4.2-1c0,0,1-0.5,1-1.6S60,28.5,60,28.5z"/>
    <path fill="hsl(var(--primary))" d="M49.6,40.9v5.2h-3.1v-5.2c0-1.8,0.3-3.7,0.8-5.2c0,0,0.5-1.6,2.1-1.6h0.5c1.6,0,2.1,1.6,2.1,1.6
      C51.8,37.2,49.6,39,49.6,40.9z"/>
    <path fill="hsl(var(--primary))" d="M49.6,40.9v5.2h-3.1v-5.2c0-1.8,0.3-3.7,0.8-5.2c0,0,0.5-1.6,2.1-1.6h0.5c1.6,0,2.1,1.6,2.1,1.6
      C51.8,37.2,49.6,39,49.6,40.9z"/>
    <g>
      <path fill="none" stroke="hsl(var(--primary))" stroke-width="1.5" d="M28.2,34.1V23.5c0-1.6,1-3.1,2.6-3.1h2.1c1.6,0,2.6,1.6,2.6,3.1v10.5"/>
      <path fill="none" stroke="hsl(var(--primary))" stroke-width="1.5" d="M25.1,34.1h10.5"/>
      <path fill="none" stroke="hsl(var(--primary))" stroke-width="1.5" d="M30.3,34.1V32c0-1.6-1-3.1-2.6-3.1h0c-1.6,0-2.6,1.6-2.6,3.1v2.1"/>
      <path fill="none" stroke="hsl(var(--primary))" stroke-width="1.5" d="M35.5,34.1V32c0-1.6,1-3.1,2.6-3.1h0c1.6,0,2.6,1.6,2.6,3.1v2.1"/>
    </g>
    <g>
      <path fill="none" stroke="hsl(var(--primary))" stroke-width="1.5" d="M68.1,34.1V23.5c0-1.6-1-3.1-2.6-3.1h-2.1c-1.6,0-2.6,1.6-2.6,3.1v10.5"/>
      <path fill="none" stroke="hsl(var(--primary))" stroke-width="1.5" d="M71.2,34.1H60.8"/>
      <path fill="none" stroke="hsl(var(--primary))" stroke-width="1.5" d="M66,34.1V32c0-1.6,1-3.1,2.6-3.1h0c1.6,0,2.6,1.6,2.6,3.1v2.1"/>
      <path fill="none" stroke="hsl(var(--primary))" stroke-width="1.5" d="M60.8,34.1V32c0-1.6-1-3.1-2.6-3.1h0c-1.6,0-2.6,1.6-2.6,3.1v2.1"/>
    </g>
    <path fill="none" stroke="hsl(var(--primary))" stroke-width="1.5" d="M50.7,46.1V85"/>
    <g>
      <path fill="none" stroke="hsl(var(--primary))" stroke-width="1.5" d="M43.9,85l-4.2-26.2"/>
      <path fill="none" stroke="hsl(var(--primary))" stroke-width="1.5" d="M57.5,85l4.2-26.2"/>
    </g>
    <path fill="none" stroke="hsl(var(--primary))" stroke-width="2" d="M20,90c10-20,60-20,70,0
      c-5-25-25-35-35-35S25,65,20,90z"/>
  </g>
</svg>
